<mxfile host="app.diagrams.net" modified="2021-12-27T04:36:21.637Z" agent="5.0 (Macintosh)" etag="aD7tqsPyfUUcxRDo_PRK" version="16.0.3" type="github">
  <diagram id="HUxEfTtjxznFp6109ITH" name="Page-1">
    <mxGraphModel dx="946" dy="506" grid="1" gridSize="10" guides="1" tooltips="1" connect="1" arrows="1" fold="1" page="1" pageScale="1" pageWidth="827" pageHeight="1169" math="0" shadow="0">
      <root>
        <mxCell id="0" />
        <mxCell id="1" parent="0" />
        <mxCell id="Uanv6kjkHvy7xjpRy54_-1" value="索引值" style="rounded=0;whiteSpace=wrap;html=1;fontStyle=1;dashed=1;dashPattern=1 1;fillColor=#fff2cc;strokeColor=#d6b656;" vertex="1" parent="1">
          <mxGeometry x="40" y="40" width="60" height="30" as="geometry" />
        </mxCell>
        <mxCell id="Uanv6kjkHvy7xjpRy54_-2" value="任期编号" style="rounded=0;whiteSpace=wrap;html=1;fontStyle=1;dashed=1;dashPattern=1 1;fillColor=#fff2cc;strokeColor=#d6b656;" vertex="1" parent="1">
          <mxGeometry x="40" y="70" width="60" height="30" as="geometry" />
        </mxCell>
        <mxCell id="Uanv6kjkHvy7xjpRy54_-3" value="指令" style="rounded=0;whiteSpace=wrap;html=1;fontStyle=1;dashed=1;dashPattern=1 1;fillColor=#fff2cc;strokeColor=#d6b656;" vertex="1" parent="1">
          <mxGeometry x="40" y="100" width="60" height="30" as="geometry" />
        </mxCell>
        <mxCell id="Uanv6kjkHvy7xjpRy54_-4" value="1" style="rounded=0;whiteSpace=wrap;html=1;fontStyle=1;dashed=1;dashPattern=1 1;fillColor=#d5e8d4;strokeColor=#82b366;" vertex="1" parent="1">
          <mxGeometry x="120" y="40" width="60" height="30" as="geometry" />
        </mxCell>
        <mxCell id="Uanv6kjkHvy7xjpRy54_-5" value="1" style="rounded=0;whiteSpace=wrap;html=1;fontStyle=1;dashed=1;dashPattern=1 1;fillColor=#d5e8d4;strokeColor=#82b366;" vertex="1" parent="1">
          <mxGeometry x="120" y="70" width="60" height="30" as="geometry" />
        </mxCell>
        <mxCell id="Uanv6kjkHvy7xjpRy54_-6" value="x = 1" style="rounded=0;whiteSpace=wrap;html=1;fontStyle=1;dashed=1;dashPattern=1 1;fillColor=#d5e8d4;strokeColor=#82b366;" vertex="1" parent="1">
          <mxGeometry x="120" y="100" width="60" height="30" as="geometry" />
        </mxCell>
        <mxCell id="Uanv6kjkHvy7xjpRy54_-10" value="索引值" style="rounded=0;whiteSpace=wrap;html=1;fontStyle=1;dashed=1;dashPattern=1 1;fillColor=#fff2cc;strokeColor=#d6b656;" vertex="1" parent="1">
          <mxGeometry x="40" y="160" width="60" height="30" as="geometry" />
        </mxCell>
        <mxCell id="Uanv6kjkHvy7xjpRy54_-11" value="任期编号" style="rounded=0;whiteSpace=wrap;html=1;fontStyle=1;dashed=1;dashPattern=1 1;fillColor=#fff2cc;strokeColor=#d6b656;" vertex="1" parent="1">
          <mxGeometry x="40" y="190" width="60" height="30" as="geometry" />
        </mxCell>
        <mxCell id="Uanv6kjkHvy7xjpRy54_-12" value="指令" style="rounded=0;whiteSpace=wrap;html=1;fontStyle=1;dashed=1;dashPattern=1 1;fillColor=#fff2cc;strokeColor=#d6b656;" vertex="1" parent="1">
          <mxGeometry x="40" y="220" width="60" height="30" as="geometry" />
        </mxCell>
        <mxCell id="Uanv6kjkHvy7xjpRy54_-13" value="索引值" style="rounded=0;whiteSpace=wrap;html=1;fontStyle=1;dashed=1;dashPattern=1 1;fillColor=#fff2cc;strokeColor=#d6b656;" vertex="1" parent="1">
          <mxGeometry x="40" y="280" width="60" height="30" as="geometry" />
        </mxCell>
        <mxCell id="Uanv6kjkHvy7xjpRy54_-14" value="任期编号" style="rounded=0;whiteSpace=wrap;html=1;fontStyle=1;dashed=1;dashPattern=1 1;fillColor=#fff2cc;strokeColor=#d6b656;" vertex="1" parent="1">
          <mxGeometry x="40" y="310" width="60" height="30" as="geometry" />
        </mxCell>
        <mxCell id="Uanv6kjkHvy7xjpRy54_-15" value="指令" style="rounded=0;whiteSpace=wrap;html=1;fontStyle=1;dashed=1;dashPattern=1 1;fillColor=#fff2cc;strokeColor=#d6b656;" vertex="1" parent="1">
          <mxGeometry x="40" y="340" width="60" height="30" as="geometry" />
        </mxCell>
        <mxCell id="Uanv6kjkHvy7xjpRy54_-16" value="2" style="rounded=0;whiteSpace=wrap;html=1;fontStyle=1;dashed=1;dashPattern=1 1;fillColor=#d5e8d4;strokeColor=#82b366;" vertex="1" parent="1">
          <mxGeometry x="180" y="40" width="60" height="30" as="geometry" />
        </mxCell>
        <mxCell id="Uanv6kjkHvy7xjpRy54_-17" value="1" style="rounded=0;whiteSpace=wrap;html=1;fontStyle=1;dashed=1;dashPattern=1 1;fillColor=#d5e8d4;strokeColor=#82b366;" vertex="1" parent="1">
          <mxGeometry x="180" y="70" width="60" height="30" as="geometry" />
        </mxCell>
        <mxCell id="Uanv6kjkHvy7xjpRy54_-18" value="x = 2" style="rounded=0;whiteSpace=wrap;html=1;fontStyle=1;dashed=1;dashPattern=1 1;fillColor=#d5e8d4;strokeColor=#82b366;" vertex="1" parent="1">
          <mxGeometry x="180" y="100" width="60" height="30" as="geometry" />
        </mxCell>
        <mxCell id="Uanv6kjkHvy7xjpRy54_-19" value="3" style="rounded=0;whiteSpace=wrap;html=1;fontStyle=1;dashed=1;dashPattern=1 1;fillColor=#e1d5e7;strokeColor=#9673a6;" vertex="1" parent="1">
          <mxGeometry x="240" y="40" width="60" height="30" as="geometry" />
        </mxCell>
        <mxCell id="Uanv6kjkHvy7xjpRy54_-20" value="2" style="rounded=0;whiteSpace=wrap;html=1;fontStyle=1;dashed=1;dashPattern=1 1;fillColor=#e1d5e7;strokeColor=#9673a6;" vertex="1" parent="1">
          <mxGeometry x="240" y="70" width="60" height="30" as="geometry" />
        </mxCell>
        <mxCell id="Uanv6kjkHvy7xjpRy54_-21" value="x = 3" style="rounded=0;whiteSpace=wrap;html=1;fontStyle=1;dashed=1;dashPattern=1 1;fillColor=#e1d5e7;strokeColor=#9673a6;" vertex="1" parent="1">
          <mxGeometry x="240" y="100" width="60" height="30" as="geometry" />
        </mxCell>
        <mxCell id="Uanv6kjkHvy7xjpRy54_-22" value="4" style="rounded=0;whiteSpace=wrap;html=1;fontStyle=1;dashed=1;dashPattern=1 1;fillColor=#f8cecc;strokeColor=#b85450;" vertex="1" parent="1">
          <mxGeometry x="300" y="40" width="60" height="30" as="geometry" />
        </mxCell>
        <mxCell id="Uanv6kjkHvy7xjpRy54_-23" value="3" style="rounded=0;whiteSpace=wrap;html=1;fontStyle=1;dashed=1;dashPattern=1 1;fillColor=#f8cecc;strokeColor=#b85450;" vertex="1" parent="1">
          <mxGeometry x="300" y="70" width="60" height="30" as="geometry" />
        </mxCell>
        <mxCell id="Uanv6kjkHvy7xjpRy54_-24" value="x = 4" style="rounded=0;whiteSpace=wrap;html=1;fontStyle=1;dashed=1;dashPattern=1 1;fillColor=#f8cecc;strokeColor=#b85450;" vertex="1" parent="1">
          <mxGeometry x="300" y="100" width="60" height="30" as="geometry" />
        </mxCell>
        <mxCell id="Uanv6kjkHvy7xjpRy54_-25" value="5" style="rounded=0;whiteSpace=wrap;html=1;fontStyle=1;dashed=1;dashPattern=1 1;fillColor=#f8cecc;strokeColor=#b85450;" vertex="1" parent="1">
          <mxGeometry x="360" y="40" width="60" height="30" as="geometry" />
        </mxCell>
        <mxCell id="Uanv6kjkHvy7xjpRy54_-26" value="4" style="rounded=0;whiteSpace=wrap;html=1;fontStyle=1;dashed=1;dashPattern=1 1;fillColor=#f8cecc;strokeColor=#b85450;" vertex="1" parent="1">
          <mxGeometry x="360" y="70" width="60" height="30" as="geometry" />
        </mxCell>
        <mxCell id="Uanv6kjkHvy7xjpRy54_-27" value="x = 5" style="rounded=0;whiteSpace=wrap;html=1;fontStyle=1;dashed=1;dashPattern=1 1;fillColor=#f8cecc;strokeColor=#b85450;" vertex="1" parent="1">
          <mxGeometry x="360" y="100" width="60" height="30" as="geometry" />
        </mxCell>
        <mxCell id="Uanv6kjkHvy7xjpRy54_-28" value="1" style="rounded=0;whiteSpace=wrap;html=1;fontStyle=1;dashed=1;dashPattern=1 1;fillColor=#d5e8d4;strokeColor=#82b366;" vertex="1" parent="1">
          <mxGeometry x="120" y="160" width="60" height="30" as="geometry" />
        </mxCell>
        <mxCell id="Uanv6kjkHvy7xjpRy54_-29" value="1" style="rounded=0;whiteSpace=wrap;html=1;fontStyle=1;dashed=1;dashPattern=1 1;fillColor=#d5e8d4;strokeColor=#82b366;" vertex="1" parent="1">
          <mxGeometry x="120" y="190" width="60" height="30" as="geometry" />
        </mxCell>
        <mxCell id="Uanv6kjkHvy7xjpRy54_-30" value="x = 1" style="rounded=0;whiteSpace=wrap;html=1;fontStyle=1;dashed=1;dashPattern=1 1;fillColor=#d5e8d4;strokeColor=#82b366;" vertex="1" parent="1">
          <mxGeometry x="120" y="220" width="60" height="30" as="geometry" />
        </mxCell>
        <mxCell id="Uanv6kjkHvy7xjpRy54_-31" value="2" style="rounded=0;whiteSpace=wrap;html=1;fontStyle=1;dashed=1;dashPattern=1 1;fillColor=#d5e8d4;strokeColor=#82b366;" vertex="1" parent="1">
          <mxGeometry x="180" y="160" width="60" height="30" as="geometry" />
        </mxCell>
        <mxCell id="Uanv6kjkHvy7xjpRy54_-32" value="1" style="rounded=0;whiteSpace=wrap;html=1;fontStyle=1;dashed=1;dashPattern=1 1;fillColor=#d5e8d4;strokeColor=#82b366;" vertex="1" parent="1">
          <mxGeometry x="180" y="190" width="60" height="30" as="geometry" />
        </mxCell>
        <mxCell id="Uanv6kjkHvy7xjpRy54_-33" value="x = 2" style="rounded=0;whiteSpace=wrap;html=1;fontStyle=1;dashed=1;dashPattern=1 1;fillColor=#d5e8d4;strokeColor=#82b366;" vertex="1" parent="1">
          <mxGeometry x="180" y="220" width="60" height="30" as="geometry" />
        </mxCell>
        <mxCell id="Uanv6kjkHvy7xjpRy54_-34" value="3" style="rounded=0;whiteSpace=wrap;html=1;fontStyle=1;dashed=1;dashPattern=1 1;fillColor=#e1d5e7;strokeColor=#9673a6;" vertex="1" parent="1">
          <mxGeometry x="240" y="160" width="60" height="30" as="geometry" />
        </mxCell>
        <mxCell id="Uanv6kjkHvy7xjpRy54_-35" value="2" style="rounded=0;whiteSpace=wrap;html=1;fontStyle=1;dashed=1;dashPattern=1 1;fillColor=#e1d5e7;strokeColor=#9673a6;" vertex="1" parent="1">
          <mxGeometry x="240" y="190" width="60" height="30" as="geometry" />
        </mxCell>
        <mxCell id="Uanv6kjkHvy7xjpRy54_-36" value="x = 3" style="rounded=0;whiteSpace=wrap;html=1;fontStyle=1;dashed=1;dashPattern=1 1;fillColor=#e1d5e7;strokeColor=#9673a6;" vertex="1" parent="1">
          <mxGeometry x="240" y="220" width="60" height="30" as="geometry" />
        </mxCell>
        <mxCell id="Uanv6kjkHvy7xjpRy54_-37" value="4" style="rounded=0;whiteSpace=wrap;html=1;fontStyle=1;dashed=1;dashPattern=1 1;fillColor=#f8cecc;strokeColor=#b85450;" vertex="1" parent="1">
          <mxGeometry x="300" y="160" width="60" height="30" as="geometry" />
        </mxCell>
        <mxCell id="Uanv6kjkHvy7xjpRy54_-38" value="3" style="rounded=0;whiteSpace=wrap;html=1;fontStyle=1;dashed=1;dashPattern=1 1;fillColor=#f8cecc;strokeColor=#b85450;" vertex="1" parent="1">
          <mxGeometry x="300" y="190" width="60" height="30" as="geometry" />
        </mxCell>
        <mxCell id="Uanv6kjkHvy7xjpRy54_-39" value="x = 4" style="rounded=0;whiteSpace=wrap;html=1;fontStyle=1;dashed=1;dashPattern=1 1;fillColor=#f8cecc;strokeColor=#b85450;" vertex="1" parent="1">
          <mxGeometry x="300" y="220" width="60" height="30" as="geometry" />
        </mxCell>
        <mxCell id="Uanv6kjkHvy7xjpRy54_-40" value="1" style="rounded=0;whiteSpace=wrap;html=1;fontStyle=1;dashed=1;dashPattern=1 1;fillColor=#d5e8d4;strokeColor=#82b366;" vertex="1" parent="1">
          <mxGeometry x="120" y="280" width="60" height="30" as="geometry" />
        </mxCell>
        <mxCell id="Uanv6kjkHvy7xjpRy54_-41" value="1" style="rounded=0;whiteSpace=wrap;html=1;fontStyle=1;dashed=1;dashPattern=1 1;fillColor=#d5e8d4;strokeColor=#82b366;" vertex="1" parent="1">
          <mxGeometry x="120" y="310" width="60" height="30" as="geometry" />
        </mxCell>
        <mxCell id="Uanv6kjkHvy7xjpRy54_-42" value="x = 1" style="rounded=0;whiteSpace=wrap;html=1;fontStyle=1;dashed=1;dashPattern=1 1;fillColor=#d5e8d4;strokeColor=#82b366;" vertex="1" parent="1">
          <mxGeometry x="120" y="340" width="60" height="30" as="geometry" />
        </mxCell>
        <mxCell id="Uanv6kjkHvy7xjpRy54_-43" value="2" style="rounded=0;whiteSpace=wrap;html=1;fontStyle=1;dashed=1;dashPattern=1 1;fillColor=#d5e8d4;strokeColor=#82b366;" vertex="1" parent="1">
          <mxGeometry x="180" y="280" width="60" height="30" as="geometry" />
        </mxCell>
        <mxCell id="Uanv6kjkHvy7xjpRy54_-44" value="1" style="rounded=0;whiteSpace=wrap;html=1;fontStyle=1;dashed=1;dashPattern=1 1;fillColor=#d5e8d4;strokeColor=#82b366;" vertex="1" parent="1">
          <mxGeometry x="180" y="310" width="60" height="30" as="geometry" />
        </mxCell>
        <mxCell id="Uanv6kjkHvy7xjpRy54_-45" value="x = 2" style="rounded=0;whiteSpace=wrap;html=1;fontStyle=1;dashed=1;dashPattern=1 1;fillColor=#d5e8d4;strokeColor=#82b366;" vertex="1" parent="1">
          <mxGeometry x="180" y="340" width="60" height="30" as="geometry" />
        </mxCell>
        <mxCell id="Uanv6kjkHvy7xjpRy54_-46" value="3" style="rounded=0;whiteSpace=wrap;html=1;fontStyle=1;dashed=1;dashPattern=1 1;fillColor=#e1d5e7;strokeColor=#9673a6;" vertex="1" parent="1">
          <mxGeometry x="240" y="280" width="60" height="30" as="geometry" />
        </mxCell>
        <mxCell id="Uanv6kjkHvy7xjpRy54_-47" value="2" style="rounded=0;whiteSpace=wrap;html=1;fontStyle=1;dashed=1;dashPattern=1 1;fillColor=#e1d5e7;strokeColor=#9673a6;" vertex="1" parent="1">
          <mxGeometry x="240" y="310" width="60" height="30" as="geometry" />
        </mxCell>
        <mxCell id="Uanv6kjkHvy7xjpRy54_-48" value="x = 3" style="rounded=0;whiteSpace=wrap;html=1;fontStyle=1;dashed=1;dashPattern=1 1;fillColor=#e1d5e7;strokeColor=#9673a6;" vertex="1" parent="1">
          <mxGeometry x="240" y="340" width="60" height="30" as="geometry" />
        </mxCell>
        <mxCell id="Uanv6kjkHvy7xjpRy54_-52" value="领导者 A" style="ellipse;whiteSpace=wrap;html=1;aspect=fixed;dashed=1;dashPattern=1 1;fontStyle=1;fontSize=14;" vertex="1" parent="1">
          <mxGeometry x="480" y="45" width="80" height="80" as="geometry" />
        </mxCell>
        <mxCell id="Uanv6kjkHvy7xjpRy54_-53" value="跟随者 B" style="ellipse;whiteSpace=wrap;html=1;aspect=fixed;dashed=1;dashPattern=1 1;fontStyle=1;fontSize=14;" vertex="1" parent="1">
          <mxGeometry x="480" y="160" width="80" height="80" as="geometry" />
        </mxCell>
        <mxCell id="Uanv6kjkHvy7xjpRy54_-54" value="跟随者 C" style="ellipse;whiteSpace=wrap;html=1;aspect=fixed;dashed=1;dashPattern=1 1;fontStyle=1;fontSize=14;" vertex="1" parent="1">
          <mxGeometry x="480" y="280" width="80" height="80" as="geometry" />
        </mxCell>
        <mxCell id="Uanv6kjkHvy7xjpRy54_-55" value="跟随者 B" style="ellipse;whiteSpace=wrap;html=1;aspect=fixed;fontFamily=Courier New;fontSize=15;fillColor=#d5e8d4;strokeColor=#82b366;" vertex="1" parent="1">
          <mxGeometry x="45" y="490" width="80" height="80" as="geometry" />
        </mxCell>
        <mxCell id="Uanv6kjkHvy7xjpRy54_-57" value="跟随者 C" style="ellipse;whiteSpace=wrap;html=1;aspect=fixed;fontFamily=Courier New;fontSize=15;fillColor=#d5e8d4;strokeColor=#82b366;" vertex="1" parent="1">
          <mxGeometry x="505.51" y="490" width="80" height="80" as="geometry" />
        </mxCell>
        <mxCell id="Uanv6kjkHvy7xjpRy54_-59" value="领导者 A" style="ellipse;whiteSpace=wrap;html=1;aspect=fixed;fontFamily=Courier New;fontSize=15;fillColor=#f8cecc;strokeColor=#b85450;" vertex="1" parent="1">
          <mxGeometry x="275.51" y="490" width="80" height="80" as="geometry" />
        </mxCell>
        <mxCell id="Uanv6kjkHvy7xjpRy54_-67" value="2 日志复制 RPC" style="endArrow=classic;startArrow=classic;html=1;rounded=0;fontSize=14;entryX=0;entryY=0.5;entryDx=0;entryDy=0;" edge="1" parent="1" target="Uanv6kjkHvy7xjpRy54_-59">
          <mxGeometry width="50" height="50" relative="1" as="geometry">
            <mxPoint x="125.25999999999999" y="530" as="sourcePoint" />
            <mxPoint x="245.26" y="660" as="targetPoint" />
          </mxGeometry>
        </mxCell>
        <mxCell id="Uanv6kjkHvy7xjpRy54_-68" value="2 日志复制 RPC" style="endArrow=classic;startArrow=classic;html=1;rounded=0;fontSize=14;" edge="1" parent="1">
          <mxGeometry width="50" height="50" relative="1" as="geometry">
            <mxPoint x="355.26" y="529.5" as="sourcePoint" />
            <mxPoint x="505.26" y="530" as="targetPoint" />
          </mxGeometry>
        </mxCell>
        <mxCell id="Uanv6kjkHvy7xjpRy54_-73" value="客户端" style="ellipse;whiteSpace=wrap;html=1;aspect=fixed;fontFamily=Courier New;fontSize=15;fillColor=#dae8fc;strokeColor=#6c8ebf;" vertex="1" parent="1">
          <mxGeometry x="275.51" y="710" width="80" height="80" as="geometry" />
        </mxCell>
        <mxCell id="Uanv6kjkHvy7xjpRy54_-74" value="" style="endArrow=classic;html=1;rounded=0;fontSize=14;exitX=0;exitY=0;exitDx=0;exitDy=0;entryX=0;entryY=1;entryDx=0;entryDy=0;" edge="1" parent="1" source="Uanv6kjkHvy7xjpRy54_-73" target="Uanv6kjkHvy7xjpRy54_-59">
          <mxGeometry width="50" height="50" relative="1" as="geometry">
            <mxPoint x="205.26" y="680" as="sourcePoint" />
            <mxPoint x="255.26" y="630" as="targetPoint" />
          </mxGeometry>
        </mxCell>
        <mxCell id="Uanv6kjkHvy7xjpRy54_-75" value="1 客户端写请求" style="edgeLabel;html=1;align=center;verticalAlign=middle;resizable=0;points=[];fontSize=14;" vertex="1" connectable="0" parent="Uanv6kjkHvy7xjpRy54_-74">
          <mxGeometry x="0.2593" y="-1" relative="1" as="geometry">
            <mxPoint x="-3" y="-9" as="offset" />
          </mxGeometry>
        </mxCell>
        <mxCell id="Uanv6kjkHvy7xjpRy54_-76" value="" style="endArrow=classic;html=1;rounded=0;fontSize=14;exitX=1;exitY=1;exitDx=0;exitDy=0;entryX=1;entryY=0;entryDx=0;entryDy=0;" edge="1" parent="1" source="Uanv6kjkHvy7xjpRy54_-59" target="Uanv6kjkHvy7xjpRy54_-73">
          <mxGeometry width="50" height="50" relative="1" as="geometry">
            <mxPoint x="445.26" y="680" as="sourcePoint" />
            <mxPoint x="495.26" y="630" as="targetPoint" />
          </mxGeometry>
        </mxCell>
        <mxCell id="Uanv6kjkHvy7xjpRy54_-77" value="4 返回执行响应" style="edgeLabel;html=1;align=center;verticalAlign=middle;resizable=0;points=[];fontSize=14;" vertex="1" connectable="0" parent="Uanv6kjkHvy7xjpRy54_-76">
          <mxGeometry x="0.4699" y="1" relative="1" as="geometry">
            <mxPoint y="-8" as="offset" />
          </mxGeometry>
        </mxCell>
        <mxCell id="Uanv6kjkHvy7xjpRy54_-78" value="3 应用日志项" style="rounded=0;whiteSpace=wrap;html=1;dashed=1;dashPattern=1 1;fontSize=14;" vertex="1" parent="1">
          <mxGeometry x="270.26" y="410" width="90" height="30" as="geometry" />
        </mxCell>
        <mxCell id="Uanv6kjkHvy7xjpRy54_-79" value="" style="endArrow=classic;html=1;rounded=0;fontSize=14;exitX=0;exitY=0;exitDx=0;exitDy=0;entryX=0;entryY=1;entryDx=0;entryDy=0;" edge="1" parent="1" source="Uanv6kjkHvy7xjpRy54_-59" target="Uanv6kjkHvy7xjpRy54_-78">
          <mxGeometry width="50" height="50" relative="1" as="geometry">
            <mxPoint x="135.26" y="470" as="sourcePoint" />
            <mxPoint x="185.26" y="420" as="targetPoint" />
          </mxGeometry>
        </mxCell>
        <mxCell id="Uanv6kjkHvy7xjpRy54_-80" value="" style="endArrow=classic;html=1;rounded=0;fontSize=14;exitX=1;exitY=1;exitDx=0;exitDy=0;entryX=1;entryY=0;entryDx=0;entryDy=0;" edge="1" parent="1" source="Uanv6kjkHvy7xjpRy54_-78" target="Uanv6kjkHvy7xjpRy54_-59">
          <mxGeometry width="50" height="50" relative="1" as="geometry">
            <mxPoint x="415.26" y="470" as="sourcePoint" />
            <mxPoint x="465.26" y="420" as="targetPoint" />
          </mxGeometry>
        </mxCell>
        <mxCell id="Uanv6kjkHvy7xjpRy54_-81" value="5 应用日志项" style="rounded=0;whiteSpace=wrap;html=1;dashed=1;dashPattern=1 1;fontSize=14;" vertex="1" parent="1">
          <mxGeometry x="40" y="620" width="90" height="30" as="geometry" />
        </mxCell>
        <mxCell id="Uanv6kjkHvy7xjpRy54_-82" value="5 应用日志项" style="rounded=0;whiteSpace=wrap;html=1;dashed=1;dashPattern=1 1;fontSize=14;" vertex="1" parent="1">
          <mxGeometry x="500.51" y="620" width="90" height="30" as="geometry" />
        </mxCell>
        <mxCell id="Uanv6kjkHvy7xjpRy54_-83" value="" style="endArrow=classic;startArrow=classic;html=1;rounded=0;fontSize=14;exitX=0.5;exitY=1;exitDx=0;exitDy=0;entryX=0.5;entryY=0;entryDx=0;entryDy=0;" edge="1" parent="1" source="Uanv6kjkHvy7xjpRy54_-55" target="Uanv6kjkHvy7xjpRy54_-81">
          <mxGeometry width="50" height="50" relative="1" as="geometry">
            <mxPoint x="125" y="620" as="sourcePoint" />
            <mxPoint x="175" y="570" as="targetPoint" />
          </mxGeometry>
        </mxCell>
        <mxCell id="Uanv6kjkHvy7xjpRy54_-84" value="" style="endArrow=classic;startArrow=classic;html=1;rounded=0;fontSize=14;exitX=0.5;exitY=1;exitDx=0;exitDy=0;entryX=0.5;entryY=0;entryDx=0;entryDy=0;" edge="1" parent="1" source="Uanv6kjkHvy7xjpRy54_-57" target="Uanv6kjkHvy7xjpRy54_-82">
          <mxGeometry width="50" height="50" relative="1" as="geometry">
            <mxPoint x="545" y="770" as="sourcePoint" />
            <mxPoint x="595" y="720" as="targetPoint" />
          </mxGeometry>
        </mxCell>
      </root>
    </mxGraphModel>
  </diagram>
</mxfile>
